<?xml version="1.0" standalone="no"?><!DOCTYPE svg PUBLIC "-//W3C//DTD SVG 1.1//EN" "http://www.w3.org/Graphics/SVG/1.1/DTD/svg11.dtd"><svg t="1657288352384" class="icon" viewBox="0 0 1024 1024" version="1.1" xmlns="http://www.w3.org/2000/svg" p-id="2292" width="32" height="32" xmlns:xlink="http://www.w3.org/1999/xlink"><defs><style type="text/css">@font-face { font-family: feedback-iconfont; src: url("//at.alicdn.com/t/font_1031158_u69w8yhxdu.woff2?t=1630033759944") format("woff2"), url("//at.alicdn.com/t/font_1031158_u69w8yhxdu.woff?t=1630033759944") format("woff"), url("//at.alicdn.com/t/font_1031158_u69w8yhxdu.ttf?t=1630033759944") format("truetype"); }
</style></defs><path d="M573.786717 234.453776c14.148231 34.752502 30.226418 61.781088 48.266283 81.087806 20.572548-21.871123 37.315884-48.89971 50.198286-81.087806L573.786717 234.453776 573.786717 234.453776z" p-id="2293" fill="#fa8c16"></path><path d="M843.794244 312.727491c-9.546424-85.915765-84.418668-177.534416-159.627581-218.9732-83.917248-46.24116-228.696656-51.163263-320.79012-0.511653-68.003813 37.401842-147.34586 108.9729-164.229388 234.833423-13.08604 97.549733 13.154601 191.397145 67.535139 256.3249 55.41817 66.175165 57.707306 61.989843 116.03269 123.380028 58.325383 61.396325 145.488559 220.432435 145.488559 220.432435s90.462315-167.07418 130.36921-211.585953 72.692602-71.117734 133.037992-150.646022C847.776951 491.959571 854.538959 409.42481 843.794244 312.727491zM355.623975 244.107647c14.146185-30.891568 25.732058-61.781088 34.751478-92.672656 15.445784 9.019421 28.959565 15.445784 40.543392 19.306718-7.723915 11.583826-18.040888 29.623691-30.891568 54.058197-12.881378 24.465205-27.693736 52.791343-44.405349 84.948741 8.987698 0 28.959565-1.26583 59.848063-3.859911 15.445784-24.434505 27.663036-47.603181 36.684504-69.502957 16.71059 11.582803 29.592992 19.306718 38.611389 23.167652-12.881378 16.742313-28.658713 39.276539-47.301306 67.573002-18.673292 28.326139-41.508369 61.147662-68.540026 98.463546 11.583826 0 40.543392-3.197832 86.878696-9.652847 0 12.880355 0.633427 24.464181 1.930979 34.751478-7.722892 1.297552-24.13263 3.226484-49.230238 5.79089-25.097608 2.594081-51.826366 7.090489-80.122829 13.514805-3.859911-11.582803-9.018398-25.097608-15.445784-40.542368 12.852726-3.860934 26.064632-14.781658 39.579437-32.821523 13.513782-18.009166 26.698059-38.612413 39.579437-61.781088-7.722892 0-18.673292 1.298576-32.821523 3.860934-14.176884 2.593058-26.39516 6.456039-36.682457 11.582803-5.158487-15.44476-11.583826-28.959565-19.305695-40.543392C326.000284 296.897967 341.446068 274.998191 355.623975 244.107647zM473.393215 535.635303c-23.168676 3.859911-47.964408 8.68787-74.330916 14.479783-26.396183 5.79089-49.895387 13.183254-70.467935 22.200628-2.594081-12.880355-7.722892-27.028587-15.445784-42.473347 38.612413-3.859911 92.672656-14.148231 162.173566-30.891568C474.026642 510.535649 473.393215 522.784624 473.393215 535.635303zM693.486936 591.624479c-34.751478-20.60427-64.374146-35.08303-88.809675-43.439348-24.464181-8.356318-50.860365-16.409738-79.156828-24.13263 7.722892-12.851703 13.514805-25.097608 17.375739-36.683481 84.948741 29.623691 140.936893 51.493791 167.966503 65.640999C705.705212 563.29834 699.911252 576.178695 693.486936 591.624479zM564.133869 444.894649c7.722892-11.583826 12.851703-23.801079 15.445784-36.682457 23.167652 9.018398 44.406372 17.073864 63.711044 24.131607 19.306718 7.090489 37.94931 14.479783 55.989175 22.202675-6.456039 9.019421-12.247952 20.603247-17.374716 34.751478-15.445784-7.721869-32.188096-15.113209-50.197262-22.202675C613.667006 460.038558 591.163479 452.617541 564.133869 444.894649zM734.029304 441.033715c-39.908942-19.305695-77.887928-45.037752-113.907283-77.225849-12.881378 11.583826-29.924543 24.13263-51.16224 37.647435s-44.7369 27.361161-70.467935 41.508369c-5.158487-12.850679-14.176884-23.800056-27.02961-32.819476 27.02961-8.989745 52.127218-20.271696 75.29487-33.786501 23.169699-13.514805 39.881312-25.399483 50.198286-35.716456-19.305695-24.434505-34.751478-50.197262-46.335305-77.225849-15.44476 27.02961-29.622668 49.563836-42.47437 67.573002-12.880355-10.287297-23.830755-17.375739-32.8205-21.237697 14.148231-15.44476 26.697035-31.855522 37.647435-49.230238 10.920724-17.375739 20.906146-35.716456 29.925566-55.024198 8.988722-19.305695 16.711614-40.544415 23.167652-63.711044 15.445784 9.019421 28.959565 15.44476 40.543392 19.306718-6.456039 7.721869-14.812357 21.900799-25.097608 42.47437L724.378503 203.566302c-11.583826 29.623691-22.8668 54.058197-33.787524 73.364915-10.949376 19.306718-26.064632 40.543392-45.370327 63.711044 16.712637 14.177907 36.683481 27.692712 59.849086 40.543392 23.168676 12.881378 41.810245 21.236674 55.989175 25.098631C749.476111 416.59921 740.45669 428.182013 734.029304 441.033715z" p-id="2294" fill="#fa8c16"></path></svg>