<?xml version="1.0" encoding="utf-8"?>
<!-- Generator: Adobe Illustrator 24.0.0, SVG Export Plug-In . SVG Version: 6.00 Build 0)  -->
<svg version="1.1" id="图层_1" xmlns="http://www.w3.org/2000/svg" xmlns:xlink="http://www.w3.org/1999/xlink" x="0px" y="0px"
	 viewBox="0 0 200 200" style="enable-background:new 0 0 200 200;" xml:space="preserve">
<style type="text/css">
	.st0{fill:#FF0000;}
</style>
<g>
	<g>
		<path class="st0" d="M100,0.4c-46,0-83.3,37.3-83.4,83.3c0,41.7,30.9,77.1,72.2,82.6c0,1.1,5.1,33.3,11.1,33.3
			s11.1-32.1,11.1-33.3c41.3-5.6,72.2-40.8,72.2-82.6C183.4,37.8,146.1,0.4,100,0.4z M91.1,54.1c-2.3,2.1-5.8,1.9-7.8-0.3
			c-1.6-1.8-1.9-4.4-0.7-6.5c1.9-2.3,5.4-2.7,7.7-0.8C92.6,48.4,92.9,51.7,91.1,54.1z M88.9,37.9c-0.1,0-0.1,0-0.2,0
			c-9.2,1-15.8,9.2-14.8,18.3l-7.2,0.5c-1.1-13.1,8.4-24.8,21.5-26.3L88.9,37.9z M86.7,16.7l1,8.1c-16.4,1.9-28.4,16.5-26.9,33
			l-8.4,0.4C50.9,20.6,86.7,16.7,86.7,16.7z M50.9,126.9h-0.4l43.9-67.9c1.4,4.2,11.6-9.1,13.4,4.2l-38.5,61.1
			C63.5,126.8,57.2,127.7,50.9,126.9z M149.5,126.3c-11.7-2.1-12.3,4.4-41.7-0.1c0,0-33.3,5.1-27.8-6.5l27.8-43.3l10.7-16.7
			l3.7-12.9l8.1-6.4l4.9-7.2c1.3,3.6,10.4,18.6,14.2,27.1V126.3z"/>
	</g>
</g>
</svg>
