<?xml version="1.0" standalone="no"?><!DOCTYPE svg PUBLIC "-//W3C//DTD SVG 1.1//EN"
  "http://www.w3.org/Graphics/SVG/1.1/DTD/svg11.dtd">
<svg t="1668743165176" class="icon" viewBox="0 0 1024 1024" version="1.1" xmlns="http://www.w3.org/2000/svg" p-id="1276"
     width="48" height="48" xmlns:xlink="http://www.w3.org/1999/xlink">
  <path
    d="M520.6016 847.2576c-57.7536 0-299.6224-226.6112-299.6224-449.4336C221.0816 232.448 355.1232 98.304 520.6016 98.304S820.224 232.448 820.224 397.824c0 222.8224-241.7664 449.4336-299.6224 449.4336z"
    fill="#fa8c16" p-id="1277"></path>
  <path
    d="M520.6016 907.1616c-63.5904 0-329.5232-253.7472-329.5232-503.296 0-181.9648 147.5584-329.5232 329.5232-329.5232s329.5232 147.5584 329.5232 329.5232c0.1024 249.5488-265.9328 503.296-329.5232 503.296z m0-778.9568c-148.8896 0-269.6192 120.7296-269.6192 269.6192 0 188.2112 199.3728 419.4304 269.6192 419.4304 66.56 0 269.6192-229.376 269.6192-419.4304 0-71.4752-28.3648-140.0832-78.9504-190.6688-50.5856-50.4832-119.0912-78.9504-190.6688-78.9504z m0 359.5264c-49.664 0-89.9072-40.2432-89.9072-89.9072s40.2432-89.9072 89.9072-89.9072 89.9072 40.2432 89.9072 89.9072c0 23.8592-9.4208 46.6944-26.3168 63.5904s-39.7312 26.3168-63.5904 26.3168z"
    fill="#fa8c16" p-id="1278"></path>
  <path
    d="M444.2112 365.9776v213.2992c0 14.9504-12.1856 27.136-27.136 27.136h-54.272c-14.9504 0-27.136-12.1856-27.136-27.136V411.136c0-7.9872 3.584-15.6672 9.728-20.8896l54.272-45.1584c11.4688-9.5232 28.672-7.9872 38.1952 3.4816 4.096 4.9152 6.3488 11.0592 6.3488 17.408z m54.1696 240.4352c-14.9504 0-27.136-12.1856-27.136-27.136V271.872c0-14.9504 12.1856-27.136 27.136-27.136 2.1504 0 4.3008 0.2048 6.3488 0.7168l162.816 39.5264c12.1856 2.9696 20.6848 13.824 20.6848 26.3168v267.8784c0 14.9504-12.1856 27.136-27.136 27.136 0.1024 0.1024-162.7136 0.1024-162.7136 0.1024z m44.9536-272.384c-4.8128 0-8.8064 3.8912-8.8064 8.8064 0 4.8128 3.8912 8.8064 8.8064 8.8064h27.648c4.8128 0 8.8064-3.8912 8.8064-8.8064 0-4.8128-3.8912-8.8064-8.8064-8.8064h-27.648z m0 83.456c-4.8128 0-8.8064 3.8912-8.8064 8.8064s3.8912 8.8064 8.8064 8.8064h72.8064c4.8128 0 8.8064-3.8912 8.8064-8.8064s-3.8912-8.8064-8.8064-8.8064h-72.8064z m0 83.456c-4.8128 0.2048-8.704 4.1984-8.4992 9.1136 0.2048 4.608 3.8912 8.3968 8.4992 8.4992h72.8064c4.8128 0.2048 8.9088-3.6864 9.1136-8.4992s-3.6864-8.9088-8.4992-9.1136h-73.4208z"
    fill="#ffffff" p-id="1279"></path>
</svg>
