<?xml version="1.0" standalone="no"?><!DOCTYPE svg PUBLIC "-//W3C//DTD SVG 1.1//EN" "http://www.w3.org/Graphics/SVG/1.1/DTD/svg11.dtd"><svg t="1668742981985" class="icon" viewBox="0 0 1024 1024" version="1.1" xmlns="http://www.w3.org/2000/svg" p-id="898" width="30" height="30" xmlns:xlink="http://www.w3.org/1999/xlink"><path d="M512.3072 847.2576c-57.7536 0-299.6224-226.6112-299.6224-449.4336C212.6848 232.448 346.8288 98.304 512.3072 98.304s299.6224 134.144 299.6224 299.52c-0.1024 222.8224-241.8688 449.4336-299.6224 449.4336z" fill="#096dd9" p-id="899"></path><path d="M512.512 907.1616c-63.5904 0-329.5232-253.7472-329.5232-503.296 0-181.9648 147.5584-329.5232 329.5232-329.5232s329.5232 147.5584 329.5232 329.5232c0 249.5488-266.0352 503.296-329.5232 503.296z m0-778.9568c-148.8896 0-269.6192 120.7296-269.6192 269.6192 0 188.2112 199.3728 419.4304 269.6192 419.4304 66.56 0 269.6192-229.376 269.6192-419.4304 0-71.4752-28.3648-140.0832-78.9504-190.6688-50.5856-50.4832-119.1936-78.9504-190.6688-78.9504z m0 359.5264c-49.664 0-89.9072-40.2432-89.9072-89.9072s40.2432-89.9072 89.9072-89.9072 89.9072 40.2432 89.9072 89.9072c0 23.8592-9.4208 46.6944-26.3168 63.5904s-39.8336 26.3168-63.5904 26.3168z" fill="#096dd9" p-id="900"></path><path d="M739.5328 369.7664L534.9376 231.0144c-13.4144-8.9088-31.8464-8.9088-45.3632 0L286.1056 368.4352c-6.3488 4.5056-9.3184 11.264-4.9152 17.5104 4.5056 6.3488 12.5952 5.0176 18.8416 0.9216l15.7696-10.6496v32.5632c0 0.512-0.1024 1.2288-0.1024 1.7408v167.424c0 0.9216 0 1.8432 0.1024 2.7648v1.2288c2.1504 45.4656 39.0144 79.5648 87.04 79.5648h219.0336c48.0256 0 84.992-33.8944 87.04-79.5648v-1.2288c0-0.9216 0.1024-1.8432 0.1024-2.7648V410.624c0-1.3312-0.1024-2.6624-0.3072-3.7888v-9.728l-2.3552-22.6304 18.2272 12.3904c2.2528 1.3312 5.0176 2.2528 7.68 2.2528 4.5056 0 8.4992 0.4096 10.752-3.1744 4.096-6.2464 2.7648-12.0832-3.4816-16.1792z m-81.3056 211.6608c-7.9872 3.6864-21.6064-11.1616-27.8528-11.1616-6.4512 0-17.5104 11.8784-30.208 11.8784-12.8 0-22.3232-14.6432-29.9008-14.6432-7.4752 0-9.6256 14.6432-29.9008 14.6432-20.3776 0-16.6912-11.8784-29.9008-11.8784-13.1072 0-9.6256 11.8784-28.3648 11.8784-18.6368 0-19.2512-11.8784-31.4368-11.8784-12.1856 0-10.3424 11.8784-25.9072 11.8784-15.5648 0-21.6064-11.8784-33.1776-11.8784-11.5712 0-16.2816 11.8784-24.6784 11.8784 0.4096-5.632 0-23.04 0-23.04s14.7456-10.24 25.088-10.24c19.5584 0.6144 19.968 12.1856 29.0816 12.1856 9.216 0 12.8-12.1856 30.208-12.1856 17.5104 0 19.2512 12.1856 30.4128 12.1856 11.1616 0 11.264-12.1856 28.7744-12.1856s18.3296 12.1856 31.4368 12.1856S548.352 548.864 569.344 548.864c21.1968 0 21.1968 12.1856 31.1296 12.1856 10.0352 0 11.9808-12.1856 27.8528-12.1856s21.1968 12.1856 29.9008 12.1856c0.9216 6.3488 0.9216 14.1312 0 20.3776z m0.3072-73.728c-7.9872 3.6864-21.6064-11.1616-27.8528-11.1616-6.4512 0-17.5104 11.8784-30.208 11.8784-12.8 0-22.3232-14.6432-29.9008-14.6432-7.4752 0-9.6256 14.6432-29.9008 14.6432-20.3776 0-16.6912-11.8784-29.9008-11.8784-13.1072 0-9.6256 11.8784-28.3648 11.8784-18.8416 0-19.1488-11.8784-31.4368-11.8784-12.3904 0-10.3424 11.8784-25.9072 11.8784-15.5648 0-21.6064-11.8784-33.1776-11.8784-11.5712 0-16.2816 11.8784-24.6784 11.8784 0.4096-5.632 0-23.04 0-23.04s14.7456-10.24 25.088-10.24c19.5584 0.6144 19.968 12.1856 29.0816 12.1856 9.216 0 12.8-12.1856 30.208-12.1856 17.5104 0 19.1488 12.1856 30.4128 12.1856 11.1616 0 11.264-12.1856 28.7744-12.1856s18.3296 12.1856 31.4368 12.1856 6.4512-12.1856 27.4432-12.1856c21.1968 0 21.1968 12.1856 31.1296 12.1856 10.0352 0 11.9808-12.1856 27.8528-12.1856s21.1968 12.1856 29.9008 12.1856c0.7168 6.4512 0.7168 14.0288 0 20.3776z m0-74.9568c-7.9872 3.6864-21.6064-11.1616-27.8528-11.1616-6.4512 0-17.5104 11.8784-30.208 11.8784-12.8 0-22.3232-14.6432-29.9008-14.6432-7.4752 0-9.6256 14.6432-29.9008 14.6432-20.3776 0-16.6912-11.8784-29.9008-11.8784-13.1072 0-9.6256 11.8784-28.3648 11.8784-18.8416 0-19.1488-11.8784-31.4368-11.8784-12.3904 0-10.3424 11.8784-25.9072 11.8784-15.5648 0-21.6064-11.8784-33.1776-11.8784-11.5712 0-16.2816 11.8784-24.6784 11.8784 0.4096-5.632 0-23.04 0-23.04s14.7456-10.24 25.088-10.24c19.5584 0.6144 19.968 12.1856 29.0816 12.1856 9.216 0 12.8-12.1856 30.208-12.1856 17.5104 0 19.1488 12.1856 30.4128 12.1856 11.1616 0 11.264-12.1856 28.7744-12.1856s18.3296 12.1856 31.4368 12.1856 6.4512-12.1856 27.4432-12.1856c21.1968 0 21.1968 12.1856 31.1296 12.1856 10.0352 0 11.9808-12.1856 27.8528-12.1856s21.1968 12.1856 29.9008 12.1856c0.7168 6.3488 0.7168 14.0288 0 20.3776z m0 0" fill="#FFFFFF" p-id="901"></path></svg>
