<?xml version="1.0" standalone="no"?><!DOCTYPE svg PUBLIC "-//W3C//DTD SVG 1.1//EN" "http://www.w3.org/Graphics/SVG/1.1/DTD/svg11.dtd"><svg t="1656125574166" class="icon" viewBox="0 0 1024 1024" version="1.1" xmlns="http://www.w3.org/2000/svg" p-id="3933" width="48" height="48" xmlns:xlink="http://www.w3.org/1999/xlink"><defs><style type="text/css">@font-face { font-family: feedback-iconfont; src: url("//at.alicdn.com/t/font_1031158_u69w8yhxdu.woff2?t=1630033759944") format("woff2"), url("//at.alicdn.com/t/font_1031158_u69w8yhxdu.woff?t=1630033759944") format("woff"), url("//at.alicdn.com/t/font_1031158_u69w8yhxdu.ttf?t=1630033759944") format("truetype"); }
</style></defs><path d="M442.892612 657.781284c0 38.728386 29.816055 70.116255 66.585221 70.116256 36.779255 0 66.585221-31.397958 66.585221-70.116256v-78.691624H442.892612v78.691624z" fill="#EDC19A" p-id="3934"></path><path d="M255.243352 394.467001c0 29.529537 23.940414 53.46995 53.46995 53.46995s53.46995-23.940414 53.469951-53.46995-23.940414-53.46995-53.469951-53.46995-53.46995 23.940414-53.46995 53.46995z" fill="#EFC29B" p-id="3935"></path><path d="M283.491628 394.460948a25.221675 25.221675 0 1 0 50.443349 0.007062c0-13.928418-11.289222-25.220666-25.217639-25.222683-13.929426-0.002018-25.221675 11.287204-25.22571 25.215621z" fill="#E89E80" opacity=".5" p-id="3936"></path><path d="M658.790146 394.467001c0 29.529537 23.940414 53.46995 53.469951 53.46995s53.46995-23.940414 53.46995-53.46995-23.940414-53.46995-53.46995-53.46995-53.46995 23.940414-53.469951 53.46995z" fill="#EFC29B" p-id="3937"></path><path d="M687.038422 394.460948a25.221675 25.221675 0 1 0 50.443349 0.007062c0-13.928418-11.289222-25.220666-25.217639-25.222683-13.929426-0.002018-25.221675 11.287204-25.22571 25.215621z" fill="#E89E80" opacity=".5" p-id="3938"></path><path d="M509.705836 71.629566h7.614928C626.654706 71.629566 715.286698 164.069021 715.286698 278.101257v138.971427C715.286698 533.297187 624.949721 627.515275 513.5133 627.515275h-3.807464C400.371895 627.515275 311.739903 535.07582 311.739903 421.043584V278.101257C311.739903 164.069021 400.371895 71.629566 509.705836 71.629566z" fill="#F6D1B1" p-id="3939"></path><path d="M398.68406 395.288219c0 11.700839 9.485367 21.186207 21.186207 21.186207s21.186207-9.485367 21.186207-21.186207-9.485367-21.186207-21.186207-21.186207-21.186207 9.485367-21.186207 21.186207zM580.280118 395.288219c0 11.700839 9.485367 21.186207 21.186206 21.186207s21.186207-9.485367 21.186207-21.186207-9.485367-21.186207-21.186207-21.186207-21.186207 9.485367-21.186206 21.186207z" fill="#1D2030" p-id="3940"></path><path d="M564.274443 330.41101c23.526778-19.58009 48.577954-25.317517 74.45741-16.976205a6.053202 6.053202 0 1 1-3.713639 11.523279c-21.848023-7.041892-42.617568-2.204374-62.999708 14.758715a6.053202 6.053202 0 0 1-7.744063-9.305789zM456.98043 330.41101a6.053202 6.053202 0 0 1-7.744063 9.305789c-20.38214-16.963089-41.151684-21.801616-62.999708-14.759724a6.053202 6.053202 0 0 1-3.713639-11.521261c25.879456-8.34333 50.929623-2.604895 74.45741 16.975196z" fill="#142736" p-id="3941"></path><path d="M511.495567 532.48404c5.167417 0 14.36223-5.350022 27.57637-8.624804 2.017734-0.499389 4.243295-0.263314 5.978545 0.63256 1.735251 0.895874 2.764296 2.342589 2.764296 3.884138v4.190833c0 2.027823-1.77157 3.833695-4.417829 4.504591C527.574889 541.08564 516.943448 546.805916 511.495567 546.805916c-5.447882 0-16.079322-5.720276-31.901383-9.735566-2.646258-0.669888-4.417829-2.47576-4.417829-4.503583v-4.190833c0-1.541549 1.029044-2.988264 2.764296-3.884138 1.735251-0.895874 3.961821-1.131949 5.978545-0.63256 13.216158 3.274782 22.408953 8.625813 27.576371 8.625813z" fill="#E28059" p-id="3942"></path><path d="M548.823645 665.85222c106.421343 0 192.693594 86.272251 192.693594 192.693594v165.454186H276.429559V858.545814c0-106.421343 86.272251-192.693594 192.693594-192.693594h79.700492z" fill="#EDC19A" p-id="3943"></path><path d="M512.504433 744.543845c42.465229 0 77.457781-31.996216 82.184323-73.196326C678.967486 691.921343 741.517239 767.929382 741.517239 858.545814v165.454186H276.429559V858.545814c0-93.072015 65.985954-170.732578 153.727116-188.75195C434.173983 711.743562 469.50854 744.543845 512.504433 744.543845z" fill="#728EA7" p-id="3944"></path><path d="M387.404927 683.987613V832.315273h254.234481l0.001008-142.674978a193.174824 193.174824 0 0 1 34.302487 24.087708L675.940885 1024H353.10345l-0.003027-319.316489A192.645169 192.645169 0 0 1 387.404927 683.987613z" fill="#2D4A64" p-id="3945"></path><path d="M300.642367 218.924146m8.070935 0l17.150739 0q8.070936 0 8.070936 8.070936l0 106.9399q0 8.070936-8.070936 8.070936l-17.150739 0q-8.070936 0-8.070935-8.070936l0-106.9399q0-8.070936 8.070935-8.070936Z" fill="#1D2030" p-id="3946"></path><path d="M699.144826 218.924146m8.070936 0l17.150738 0q8.070936 0 8.070936 8.070936l0 106.9399q0 8.070936-8.070936 8.070936l-17.150738 0q-8.070936 0-8.070936-8.070936l0-106.9399q0-8.070936 8.070936-8.070936Z" fill="#1D2030" p-id="3947"></path><path d="M513.5133 0.00001c123.694154 0 223.968471 100.274316 223.968471 223.968471H289.54483C289.54483 100.274326 389.819146 0.00001 513.5133 0.00001z" fill="#F4B944" p-id="3948"></path><path d="M513.5133 0.00001c11.313434 0 22.431149 0.838368 33.29362 2.4576L546.805911 223.968481h-65.576354l-0.002018-221.658166A225.845972 225.845972 0 0 1 513.5133 0.00001z" fill="#FFDA92" p-id="3949"></path><path d="M267.323526 223.968481h492.379549c3.147665 0 4.289702 0.327882 5.44082 0.94329a6.416394 6.416394 0 0 1 2.669462 2.669462c0.615409 1.150108 0.943291 2.292146 0.943291 5.44082v38.389407c0 3.147665-0.327882 4.289702-0.943291 5.440819a6.416394 6.416394 0 0 1-2.669462 2.669462c-1.150108 0.615409-2.292146 0.943291-5.44082 0.943291H267.323526c-3.147665 0-4.289702-0.327882-5.44082-0.943291a6.416394 6.416394 0 0 1-2.669462-2.669462c-0.615409-1.150108-0.943291-2.292146-0.943291-5.440819v-38.389407c0-3.147665 0.327882-4.289702 0.943291-5.44082a6.416394 6.416394 0 0 1 2.669462-2.669462c1.150108-0.615409 2.292146-0.943291 5.44082-0.94329z" fill="#EFA410" p-id="3950"></path></svg>