<?xml version="1.0" encoding="UTF-8"?>
<svg xmlns="http://www.w3.org/2000/svg" xmlns:xlink="http://www.w3.org/1999/xlink" width="32px" height="32px" viewBox="0 0 32 32" version="1.1">
  <g id="surface1">
    <path style=" stroke:none;fill-rule:evenodd;fill:#52c41a;fill-opacity:1;" d="M 16 32 C 7.164062 32 0 24.835938 0 16 C 0 7.164062 7.164062 0 16 0 C 24.835938 0 32 7.164062 32 16 C 32 24.835938 24.835938 32 16 32 Z M 16 0.800781 C 7.605469 0.800781 0.800781 7.605469 0.800781 16 C 0.800781 24.394531 7.605469 31.199219 16 31.199219 C 24.394531 31.199219 31.199219 24.394531 31.199219 16 C 31.199219 7.605469 24.394531 0.800781 16 0.800781 Z M 16 0.800781 "/>
    <path style=" stroke:none;fill-rule:evenodd;fill:#52c41a;fill-opacity:1;" d="M 16 30.359375 C 8.070312 30.359375 1.640625 23.929688 1.640625 16 C 1.640625 8.070312 8.070312 1.640625 16 1.640625 C 23.929688 1.640625 30.359375 8.070312 30.359375 16 C 30.359375 23.929688 23.929688 30.359375 16 30.359375 Z M 16 2.359375 C 8.464844 2.359375 2.359375 8.464844 2.359375 16 C 2.359375 23.535156 8.464844 29.640625 16 29.640625 C 23.535156 29.640625 29.640625 23.535156 29.640625 16 C 29.640625 8.464844 23.535156 2.359375 16 2.359375 Z M 16 2.359375 "/>
    <path style=" stroke:none;fill-rule:evenodd;fill:#52c41a;fill-opacity:1;" d="M 16 27.601562 C 9.59375 27.601562 4.398438 22.40625 4.398438 16 C 4.398438 9.59375 9.59375 4.398438 16 4.398438 C 22.40625 4.398438 27.601562 9.59375 27.601562 16 C 27.601562 22.40625 22.40625 27.601562 16 27.601562 Z M 16 4.980469 C 9.914062 4.980469 4.980469 9.914062 4.980469 16 C 4.980469 22.085938 9.914062 27.019531 16 27.019531 C 22.085938 27.019531 27.019531 22.085938 27.019531 16 C 27.019531 9.914062 22.085938 4.980469 16 4.980469 Z M 16 4.980469 "/>
    <path style=" stroke:none;fill-rule:evenodd;fill:#52c41a;fill-opacity:1;" d="M 5.777344 25.988281 C 0.183594 20.394531 0.183594 11.328125 5.777344 5.738281 C 11.371094 0.144531 20.4375 0.144531 26.027344 5.738281 "/>
  </g>
</svg>
