<?xml version="1.0" standalone="no"?><!DOCTYPE svg PUBLIC "-//W3C//DTD SVG 1.1//EN" "http://www.w3.org/Graphics/SVG/1.1/DTD/svg11.dtd"><svg t="1656490496636" class="icon" viewBox="0 0 1024 1024" version="1.1" xmlns="http://www.w3.org/2000/svg" p-id="25213" width="48" height="48" xmlns:xlink="http://www.w3.org/1999/xlink"><defs><style type="text/css">@font-face { font-family: feedback-iconfont; src: url("//at.alicdn.com/t/font_1031158_u69w8yhxdu.woff2?t=1630033759944") format("woff2"), url("//at.alicdn.com/t/font_1031158_u69w8yhxdu.woff?t=1630033759944") format("woff"), url("//at.alicdn.com/t/font_1031158_u69w8yhxdu.ttf?t=1630033759944") format("truetype"); }
</style></defs><path d="M511.853043 1024C229.649478 1024 0.88352 795.234043 0.88352 513.030477 0.88352 230.974123 229.649478 2.060955 511.853043 2.060955c282.203565 0 510.969523 228.765957 510.969523 510.969522 0 282.203565-228.913168 510.969523-510.969523 510.969523z" fill="#D7D7D8" p-id="25214"></path><path d="M755.340105 636.834963H269.396459c-24.289822 0-44.016101-19.726279-44.016101-44.016102v-359.194939c0-24.289822 19.726279-44.016101 44.016101-44.016101h485.943646c24.289822 0 44.016101 19.726279 44.016101 44.016101v359.194939c0 24.289822-19.726279 44.016101-44.016101 44.016102z" fill="#939393" p-id="25215"></path><path d="M797.589673 412.338125H812.899622c14.13226 0 25.614721 11.482461 25.614721 25.614721V488.740656c0 14.13226-11.482461 25.614721-25.614721 25.614721h-15.309949c-14.13226 0-25.614721-11.482461-25.614721-25.614721v-50.935021c0.147211-14.13226 11.482461-25.46751 25.614721-25.46751z" fill="#F4F4F4" p-id="25216"></path><path d="M795.087086 514.355377h20.462334v13.396204c0 16.487637-13.396205 29.883841-29.883841 29.883842h-48.874065v-20.462335h48.874065c5.152386 0 9.421507-4.26912 9.421507-9.421507v-13.396204z" fill="#CDD6E0" p-id="25217"></path><path d="M227.735734 412.338125h-16.634847c-13.690627 0-24.878666 11.188039-24.878666 24.878666v52.25992c0 13.690627 11.188039 24.878666 24.878666 24.878666h16.634847c13.690627 0 24.878666-11.188039 24.878666-24.878666V437.216791c0-13.837838-11.040828-24.878666-24.878666-24.878666z" fill="#F4F4F4" p-id="25218"></path><path d="M229.649478 514.355377H209.334354v13.396204c0 16.487637 13.396205 29.883841 29.883842 29.883842h48.874065v-20.462335h-48.874065c-5.152386 0-9.421507-4.26912-9.421507-9.421507v-13.396204z" fill="#CDD6E0" p-id="25219"></path><path d="M330.047408 836.158712c-23.553767 0-42.691202-19.137435-42.691202-42.691202v-41.219091c0-23.406555 19.137435-42.691202 42.691202-42.691202 23.406555 0 42.691202 19.137435 42.691202 42.691202v41.219091c0 23.553767-19.137435 42.691202-42.691202 42.691202zM686.298127 836.158712c-23.553767 0-42.691202-19.137435-42.691202-42.691202v-41.219091c0-23.406555 19.137435-42.691202 42.691202-42.691202 23.406555 0 42.691202 19.137435 42.691201 42.691202v41.219091c0 23.553767-19.137435 42.691202-42.691201 42.691202z" fill="#181818" p-id="25220"></path><path d="M767.41141 555.86889v215.222542H257.325154V555.86889L275.579323 407.627372c5.005175-40.924669 39.746981-71.544566 80.966072-71.544566h311.645773c41.219091 0 75.960897 30.767108 80.966073 71.544566l18.254169 148.241518z" fill="#E74A48" p-id="25221"></path><path d="M737.67478 537.025877l-15.604371-126.012651c-3.385854-27.234043-26.497987-47.696377-54.026452-47.696377H356.545395c-27.381254 0-50.640598 20.462335-54.026452 47.696377l-15.60437 126.012651h450.760207z" fill="#54C0EB" p-id="25222"></path><path d="M767.558621 719.273145H257.177943c-14.279471 0-25.909143 11.629672-25.909144 25.909144 0 14.279471 11.629672 25.909143 25.909144 25.909143h510.380678c14.279471 0 25.909143-11.629672 25.909143-25.909143 0-14.279471-11.629672-25.909143-25.909143-25.909144z" fill="#FF7058" p-id="25223"></path><path d="M767.558621 719.273145H257.177943c-14.279471 0-25.909143 11.629672-25.909144 25.909144 0 14.279471 11.629672 25.909143 25.909144 25.909143h510.380678c14.279471 0 25.909143-11.629672 25.909143-25.909143 0-14.279471-11.629672-25.909143-25.909143-25.909144z" fill="#C32D2C" p-id="25224"></path><path d="M365.67248 651.703278c0 20.315124-16.487637 36.80276-36.802761 36.80276s-36.80276-16.487637-36.80276-36.80276 16.487637-36.80276 36.80276-36.80276 36.80276 16.487637 36.802761 36.80276z" fill="#F7CF6F" p-id="25225"></path><path d="M732.669604 651.703278c0 20.315124-16.487637 36.80276-36.80276 36.80276s-36.80276-16.487637-36.80276-36.80276 16.487637-36.80276 36.80276-36.80276 36.80276 16.487637 36.80276 36.80276z" fill="#FFD15C" p-id="25226"></path><path d="M511.853043 363.316849l-138.231167 173.709028h-25.614721l138.231167-173.709028zM570.001404 363.316849l-137.936745 173.709028h-41.219091l138.231167-173.709028z" fill="#84DBFF" p-id="25227"></path><path d="M431.623026 669.810236c-3.238643 0-5.888442-2.649799-5.888442-5.888442v-22.081656c0-3.238643 2.649799-5.888442 5.888442-5.888442s5.888442 2.649799 5.888442 5.888442v22.081656c0 3.238643-2.649799 5.888442-5.888442 5.888442zM399.236597 669.810236c-3.238643 0-5.888442-2.649799-5.888442-5.888442v-22.081656c0-3.238643 2.649799-5.888442 5.888442-5.888442s5.888442 2.649799 5.888442 5.888442v22.081656c0 3.238643-2.649799 5.888442-5.888442 5.888442zM464.009455 669.810236c-3.238643 0-5.888442-2.649799-5.888442-5.888442v-22.081656c0-3.238643 2.649799-5.888442 5.888442-5.888442s5.888442 2.649799 5.888442 5.888442v22.081656c0 3.238643-2.649799 5.888442-5.888442 5.888442zM496.395884 669.810236c-3.238643 0-5.888442-2.649799-5.888442-5.888442v-22.081656c0-3.238643 2.649799-5.888442 5.888442-5.888442s5.888442 2.649799 5.888441 5.888442v22.081656c0 3.238643-2.649799 5.888442-5.888441 5.888442zM528.782313 669.810236c-3.238643 0-5.888442-2.649799-5.888442-5.888442v-22.081656c0-3.238643 2.649799-5.888442 5.888442-5.888442s5.888442 2.649799 5.888441 5.888442v22.081656c0 3.238643-2.649799 5.888442-5.888441 5.888442zM561.168742 669.810236c-3.238643 0-5.888442-2.649799-5.888442-5.888442v-22.081656c0-3.238643 2.649799-5.888442 5.888442-5.888442s5.888442 2.649799 5.888441 5.888442v22.081656c0 3.238643-2.649799 5.888442-5.888441 5.888442zM593.555171 669.810236c-3.238643 0-5.888442-2.649799-5.888442-5.888442v-22.081656c0-3.238643 2.649799-5.888442 5.888442-5.888442s5.888442 2.649799 5.888441 5.888442v22.081656c0 3.238643-2.649799 5.888442-5.888441 5.888442zM625.9416 669.810236c-3.238643 0-5.888442-2.649799-5.888442-5.888442v-22.081656c0-3.238643 2.649799-5.888442 5.888442-5.888442s5.888442 2.649799 5.888441 5.888442v22.081656c0 3.238643-2.649799 5.888442-5.888441 5.888442z" fill="#C32D2C" p-id="25228"></path></svg>